<?xml version="1.0" encoding="UTF-8"?><svg id="_レイヤー_2" xmlns="http://www.w3.org/2000/svg" viewBox="0 0 285.02 101.66"><defs><style>.cls-1{fill:#fdd178;stroke-width:0px;}</style></defs><g id="_イラスト"><path class="cls-1" d="m12.12,24.94c-2.42,1.58-5.74,1.67-8.24.21C1.38,23.69-.18,20.75.02,17.87c.24-3.67,3.43-6.94,7.1-7.24,3.67-.3,7.35,2.45,8.08,6.06.73,3.61-1.75,7.38-3.07,8.25Z"/><path class="cls-1" d="m34.33,50.09c-2.13,1.39-5.05,1.47-7.25.19-2.2-1.28-3.57-3.87-3.4-6.41.21-3.23,3.02-6.11,6.25-6.37,3.23-.26,6.47,2.15,7.11,5.33.64,3.18-1.54,6.5-2.7,7.26Z"/><path class="cls-1" d="m15.04,94.4c-2.27,1.49-5.39,1.57-7.74.2-2.35-1.37-3.81-4.12-3.63-6.83.23-3.45,3.22-6.51,6.66-6.79,3.44-.28,6.9,2.3,7.59,5.69.68,3.39-1.64,6.93-2.88,7.74Z"/><path class="cls-1" d="m62.04,79.78c-2.27,1.49-5.39,1.57-7.74.2-2.35-1.37-3.81-4.12-3.63-6.83.23-3.45,3.22-6.51,6.66-6.79,3.44-.28,6.9,2.3,7.59,5.69.68,3.39-1.64,6.93-2.88,7.74Z"/><path class="cls-1" d="m77.46,24.18c-2.96,1.93-7.01,2.04-10.06.26-3.05-1.78-4.95-5.36-4.72-8.89.3-4.48,4.18-8.47,8.66-8.83,4.48-.36,8.98,2.99,9.86,7.39.89,4.4-2.13,9.01-3.75,10.07Z"/><path class="cls-1" d="m104.24,62.38c-1.89,1.24-4.49,1.3-6.44.16-1.95-1.14-3.17-3.43-3.02-5.69.19-2.87,2.68-5.42,5.54-5.65,2.87-.23,5.75,1.91,6.31,4.73.57,2.82-1.37,5.77-2.4,6.45Z"/><path class="cls-1" d="m98.26,100.69c-1.89,1.24-4.49,1.3-6.44.16-1.95-1.14-3.17-3.43-3.02-5.69.19-2.87,2.68-5.42,5.54-5.65,2.87-.23,5.75,1.91,6.31,4.73s-1.37,5.77-2.4,6.45Z"/><path class="cls-1" d="m139.44,79.83c-2.18,1.43-5.18,1.51-7.44.19-2.25-1.32-3.66-3.96-3.49-6.57.22-3.31,3.09-6.26,6.4-6.53,3.31-.27,6.63,2.21,7.29,5.46.66,3.26-1.58,6.66-2.77,7.44Z"/><path class="cls-1" d="m137.98,29.63c-2.69,1.76-6.38,1.86-9.16.23s-4.51-4.88-4.3-8.09c.27-4.08,3.81-7.71,7.89-8.04,4.08-.33,8.17,2.72,8.98,6.73.81,4.01-1.94,8.21-3.41,9.17Z"/><path class="cls-1" d="m176.45,14.12c-2.39,1.56-5.66,1.65-8.12.21-2.46-1.44-4-4.33-3.81-7.18.24-3.62,3.38-6.84,6.99-7.13,3.62-.29,7.25,2.41,7.96,5.97.72,3.56-1.72,7.28-3.03,8.13Z"/><path class="cls-1" d="m173.98,52.14c-2.89,1.89-6.86,1.99-9.84.25-2.98-1.74-4.85-5.25-4.62-8.7.29-4.39,4.09-8.29,8.48-8.64,4.38-.35,8.78,2.92,9.65,7.24.87,4.31-2.09,8.82-3.67,9.86Z"/><path class="cls-1" d="m183.07,84.21c-2.52,1.65-5.98,1.74-8.58.22-2.6-1.52-4.22-4.57-4.02-7.58.25-3.82,3.57-7.22,7.38-7.53,3.82-.31,7.65,2.55,8.41,6.3.76,3.76-1.82,7.68-3.2,8.58Z"/><path class="cls-1" d="m223.26,61.26c-2.82,1.85-6.69,1.95-9.61.25-2.91-1.7-4.73-5.12-4.51-8.49.28-4.28,3.99-8.09,8.27-8.43,4.28-.35,8.57,2.85,9.42,7.06.85,4.21-2.04,8.61-3.58,9.62Z"/><path class="cls-1" d="m236.26,23.82c-2.82,1.85-6.69,1.95-9.61.25-2.91-1.7-4.73-5.12-4.51-8.49.28-4.28,3.99-8.09,8.27-8.43,4.28-.35,8.57,2.85,9.42,7.06.85,4.21-2.04,8.61-3.58,9.62Z"/><path class="cls-1" d="m244.02,81.3c-2.59,1.69-6.14,1.78-8.81.22-2.67-1.56-4.34-4.7-4.13-7.78.26-3.93,3.66-7.42,7.58-7.73,3.92-.32,7.86,2.62,8.64,6.47.78,3.86-1.87,7.89-3.28,8.82Z"/><path class="cls-1" d="m265.36,47.14c-2.06,1.35-4.88,1.42-7,.18-2.12-1.24-3.45-3.73-3.28-6.19.21-3.12,2.91-5.9,6.03-6.15,3.12-.25,6.25,2.08,6.87,5.15.62,3.07-1.49,6.27-2.61,7.01Z"/><path class="cls-1" d="m274.68,13.03c-2.19,1.43-5.19,1.51-7.45.19-2.26-1.32-3.67-3.97-3.49-6.58.22-3.32,3.1-6.27,6.41-6.54,3.32-.27,6.65,2.21,7.3,5.47.66,3.26-1.58,6.67-2.77,7.46Z"/><path class="cls-1" d="m281.91,83.76c-2.35,1.54-5.58,1.62-8.01.2-2.43-1.42-3.94-4.27-3.76-7.08.24-3.57,3.33-6.75,6.9-7.03,3.57-.29,7.15,2.38,7.86,5.89.71,3.51-1.7,7.18-2.99,8.02Z"/></g></svg>