<svg xmlns="http://www.w3.org/2000/svg" width="60.16" height="60.16" viewBox="0 0 60.16 60.16"><path data-name="Logo — FIXED" d="M19.71 52.21c21.46 0 33.2-17.73 33.2-33.1q0-.75-.03-1.5a23.623 23.623 0 005.82-6.02 23.81 23.81 0 01-6.7 1.83 11.662 11.662 0 005.13-6.44 23.467 23.467 0 01-7.41 2.82 11.672 11.672 0 00-19.89 10.61A33.116 33.116 0 015.78 8.26a11.621 11.621 0 003.61 15.53 11.593 11.593 0 01-5.29-1.46v.15a11.657 11.657 0 009.37 11.41 12.1 12.1 0 01-3.08.41 12.333 12.333 0 01-2.2-.21 11.7 11.7 0 0010.91 8.08 23.481 23.481 0 01-14.5 4.97 25.48 25.48 0 01-2.78-.15 33.186 33.186 0 0017.89 5.22" fill="#fff" fill-rule="evenodd"/></svg>