<svg xmlns="http://www.w3.org/2000/svg" width="60" height="60" viewBox="0 0 60 60"><path d="M29.95 6.39c7.72 0 8.63.03 11.68.16a16.17 16.17 0 015.37 1 9.521 9.521 0 015.49 5.49 15.978 15.978 0 01.99 5.37c.14 3.05.17 3.96.17 11.68s-.03 8.64-.17 11.69a15.978 15.978 0 01-.99 5.37A9.6 9.6 0 0147 52.64a15.978 15.978 0 01-5.37.99c-3.05.14-3.96.17-11.68.17s-8.64-.03-11.69-.17a15.978 15.978 0 01-5.37-.99 9.673 9.673 0 01-5.49-5.49 15.978 15.978 0 01-.99-5.37c-.14-3.05-.17-3.96-.17-11.69s.03-8.63.17-11.68a15.978 15.978 0 01.99-5.37 9.6 9.6 0 015.49-5.49 16.17 16.17 0 015.37-1c3.05-.13 3.96-.16 11.69-.16m0-5.17c-7.85 0-8.83.03-11.91.17a21.05 21.05 0 00-7.01 1.35 14.778 14.778 0 00-8.44 8.44 21.05 21.05 0 00-1.35 7.01c-.14 3.08-.17 4.06-.17 11.9s.03 8.83.17 11.91a21.05 21.05 0 001.35 7.01 14.778 14.778 0 008.44 8.44 21.307 21.307 0 007.01 1.35c3.08.13 4.06.17 11.91.17s8.82-.04 11.9-.17a21.307 21.307 0 007.01-1.35 14.778 14.778 0 008.44-8.44A21.05 21.05 0 0058.65 42c.14-3.08.17-4.06.17-11.91s-.03-8.82-.17-11.9a21.05 21.05 0 00-1.35-7.01 14.778 14.778 0 00-8.44-8.44 21.05 21.05 0 00-7.01-1.35c-3.08-.14-4.06-.17-11.9-.17zm0 14.06a14.815 14.815 0 1014.81 14.81 14.811 14.811 0 00-14.81-14.81zm0 24.46a9.65 9.65 0 119.65-9.65 9.658 9.658 0 01-9.65 9.65zm18.84-25.03a3.46 3.46 0 11-3.46-3.46 3.453 3.453 0 013.46 3.46z" fill-rule="evenodd" fill="#fff"/></svg>