<?xml version="1.0" encoding="UTF-8"?><svg id="_レイヤー_2" xmlns="http://www.w3.org/2000/svg" viewBox="0 0 266.62 129.73"><defs><style>.cls-1{fill:#fdd178;stroke:#fdd178;stroke-miterlimit:10;stroke-width:3px;}</style></defs><g id="_イラスト"><path class="cls-1" d="m224.62,128.04c-.28,0-.54-.2-.59-.49-6.62-36.57-41.19-65.09-80.41-66.34-37.78-1.19-75.38,27.3-85.65,64.88-.09.32-.42.51-.74.42-.32-.09-.51-.42-.42-.74,4.96-18.13,16.59-34.93,32.76-47.3,16.34-12.5,35.56-19.06,54.08-18.47,39.77,1.27,74.83,30.21,81.55,67.33.06.33-.16.64-.48.7-.04,0-.07,0-.11,0Z"/><path class="cls-1" d="m49.5,125.3s-.01,0-.02,0l-19.26-.6c-.33-.01-.59-.29-.58-.62.01-.33.29-.6.62-.58l19.26.6c.33.01.59.29.58.62-.01.33-.28.58-.6.58Z"/><path class="cls-1" d="m52.67,117.58c-.05,0-.1,0-.16-.02L1.94,103.84c-.32-.09-.51-.42-.42-.74.09-.32.42-.51.74-.42l50.57,13.71c.32.09.51.42.42.74-.07.27-.31.44-.58.44Z"/><path class="cls-1" d="m64.3,103.37c-.08,0-.16-.02-.24-.05l-33.85-15.11c-.3-.14-.44-.49-.3-.79.13-.3.49-.44.79-.3l33.85,15.11c.3.14.44.49.3.79-.1.22-.32.36-.55.36Z"/><path class="cls-1" d="m25.34,85.99c-.08,0-.16-.02-.24-.05l-3.19-1.43c-.3-.13-.44-.49-.3-.79.13-.3.49-.44.79-.3l3.19,1.43c.3.14.44.49.3.79-.1.22-.32.36-.55.36Z"/><path class="cls-1" d="m76.79,86.42c-.14,0-.29-.05-.4-.16-17.59-16.01-35.93-31.64-54.52-46.48-.26-.21-.3-.58-.1-.84.21-.26.58-.3.84-.1,18.61,14.85,36.98,30.5,54.58,46.53.25.22.26.6.04.85-.12.13-.28.2-.44.2Z"/><path class="cls-1" d="m89.85,76.33c-.17,0-.33-.07-.45-.2l-23.76-26.98c-.22-.25-.19-.63.05-.85.25-.22.63-.2.85.05l23.76,26.98c.22.25.19.63-.05.85-.11.1-.26.15-.4.15Z"/><path class="cls-1" d="m62.89,45.72c-.17,0-.33-.07-.45-.2l-2.74-3.11c-.22-.25-.2-.63.05-.85.25-.22.63-.2.85.05l2.74,3.11c.22.25.2.63-.05.85-.11.1-.26.15-.4.15Z"/><path class="cls-1" d="m106.25,66.24c-.24,0-.47-.15-.56-.39L81.51,2.31c-.12-.31.04-.66.35-.77.31-.12.66.04.77.35l24.18,63.54c.12.31-.04.66-.35.77-.07.03-.14.04-.21.04Z"/><path class="cls-1" d="m120.58,61.27c-.28,0-.53-.19-.59-.47l-4.74-21.93c-.07-.32.14-.64.46-.71.33-.07.64.14.71.46l4.74,21.93c.07.32-.14.64-.46.71-.04,0-.09.01-.13.01Z"/><path class="cls-1" d="m140.03,58.59c-.33,0-.6-.27-.6-.6,0-6.01.03-11.69.07-17.15.08-12.55.15-24.41-.25-36.31-.01-.33.25-.61.58-.62.3-.02.61.25.62.58.39,11.92.32,23.79.25,36.35-.03,5.46-.07,11.14-.07,17.14,0,.33-.27.6-.6.6Z"/><path class="cls-1" d="m160.59,61.03s-.1,0-.15-.02c-.32-.08-.51-.41-.43-.73l14.21-54.83c.08-.32.41-.51.73-.43.32.08.51.41.43.73l-14.21,54.83c-.07.27-.31.45-.58.45Z"/><path class="cls-1" d="m175.15,65.7c-.08,0-.17-.02-.25-.05-.3-.14-.44-.49-.3-.79,2.38-5.27,4.65-10.69,6.72-16.08.12-.31.47-.46.78-.34.31.12.46.47.34.78-2.08,5.42-4.35,10.85-6.75,16.15-.1.22-.32.35-.55.35Z"/><path class="cls-1" d="m183.54,45.19c-.07,0-.14-.01-.21-.04-.31-.11-.47-.46-.36-.77.46-1.26.92-2.52,1.36-3.79.11-.31.45-.48.77-.37.31.11.48.45.37.77-.45,1.27-.9,2.54-1.37,3.8-.09.24-.32.39-.56.39Z"/><path class="cls-1" d="m193.74,74.54c-.12,0-.23-.03-.33-.1-.27-.19-.35-.56-.16-.83l29.37-43.55c.19-.27.56-.35.83-.16.27.19.35.56.16.83l-29.37,43.55c-.12.17-.31.26-.5.26Z"/><path class="cls-1" d="m205.13,86.49c-.14,0-.28-.05-.39-.14-.25-.22-.28-.59-.06-.85l11.39-13.28c.21-.25.59-.28.85-.06.25.22.28.59.06.85l-11.39,13.28c-.12.14-.29.21-.46.21Z"/><path class="cls-1" d="m220.62,68.43c-.14,0-.28-.05-.39-.14-.25-.22-.28-.59-.06-.85l2.28-2.66c.22-.25.59-.28.85-.06.25.22.28.59.06.85l-2.28,2.66c-.12.14-.29.21-.46.21Z"/><path class="cls-1" d="m217.03,99.3c-.17,0-.35-.08-.47-.22-.21-.26-.17-.63.09-.84,11.12-9.08,22.09-18.64,32.61-28.42.24-.23.62-.21.85.03.23.24.21.62-.03.85-10.54,9.79-21.53,19.37-32.67,28.47-.11.09-.25.14-.38.14Z"/><path class="cls-1" d="m224.62,114.87c-.21,0-.41-.11-.52-.3-.16-.29-.06-.65.22-.82,6.31-3.59,12.91-6.79,19.64-9.51.31-.12.66.02.78.33.12.31-.02.66-.33.78-6.68,2.7-13.24,5.88-19.5,9.44-.09.05-.2.08-.3.08Z"/><path class="cls-1" d="m264.52,128.23h0l-7.69-.08c-.33,0-.6-.27-.59-.61,0-.33.23-.61.61-.59l7.69.08c.33,0,.6.27.59.61,0,.33-.27.59-.6.59Z"/><path class="cls-1" d="m251.94,128.1h0l-24.46-.25c-.33,0-.6-.27-.59-.61,0-.33.27-.59.6-.59h0l24.46.25c.33,0,.6.27.59.61,0,.33-.27.59-.6.59Z"/></g></svg>